<?xml version="1.0" encoding="UTF-8"?>
<svg id="Layer_1" xmlns="http://www.w3.org/2000/svg" viewBox="0 0 24 24">
<path d="m12,21.98c-.99,0-1.92-.39-2.62-1.09l-6.29-6.29c-.7-.7-1.09-1.63-1.09-2.62,0-.99.39-1.92,1.09-2.62l6.29-6.29c1.4-1.41,3.85-1.41,5.25,0l6.29,6.29c.7.7,1.09,1.63,1.09,2.62s-.39,1.92-1.09,2.62l-6.29,6.29c-.7.7-1.63,1.09-2.62,1.09Zm0-18.53c-.6,0-1.16.23-1.58.66l-6.29,6.29c-.42.42-.66.98-.66,1.58,0,.6.23,1.16.66,1.58l6.29,6.29c.85.86,2.32.85,3.17,0l6.29-6.29c.42-.42.66-.99.66-1.58s-.23-1.16-.66-1.58l-6.29-6.29c-.42-.43-.99-.66-1.58-.66Z"/>
</svg>
