<?xml version="1.0" encoding="UTF-8"?><svg id="Layer_1" xmlns="http://www.w3.org/2000/svg" viewBox="0 0 24 24"><defs><style>.cls-1{stroke-width:0px;}</style></defs><path class="cls-1" d="M13.85,16.8h-2.42c-.34-1.41-1.61-2.47-3.13-2.47H3.5v-.48c0-.41-.34-.75-.75-.75s-.75.34-.75.75v7.4c0,.41.34.75.75.75s.75-.34.75-.75v-.48h12.82c.41,0,.75-.34.75-.75,0-1.77-1.44-3.22-3.22-3.22ZM3.5,19.27v-3.43h4.8c.68,0,1.26.4,1.54.97h-2.15c-.41,0-.75.34-.75.75s.34.75.75.75h6.17c.68,0,1.27.39,1.54.97H3.5ZM20.12,2H7.57c-1.04.02-1.88.88-1.87,1.91v7.13c0,1.04.83,1.9,1.88,1.91h12.54c1.04-.01,1.88-.87,1.87-1.91V3.92c0-1.04-.83-1.9-1.88-1.92ZM20.5,11.05c0,.22-.17.4-.38.4H7.59c-.22,0-.4-.18-.4-.41V3.9c0-.22.17-.4.39-.41h12.51c.22,0,.4.18.4.41v7.14ZM13.85,4.88c-1.43,0-2.6,1.17-2.6,2.6s1.17,2.6,2.6,2.6,2.6-1.17,2.6-2.6-1.17-2.6-2.6-2.6ZM13.85,8.58c-.61,0-1.1-.49-1.1-1.1s.49-1.1,1.1-1.1,1.1.49,1.1,1.1-.49,1.1-1.1,1.1ZM10.69,5.42c0,.41-.34.75-.75.75h-1.23c-.41,0-.75-.34-.75-.75s.34-.75.75-.75h1.23c.41,0,.75.34.75.75ZM19.74,9.53c0,.41-.34.75-.75.75h-1.23c-.41,0-.75-.34-.75-.75s.34-.75.75-.75h1.23c.41,0,.75.34.75.75Z"/></svg>