<?xml version="1.0" encoding="UTF-8"?><svg id="Layer_1" xmlns="http://www.w3.org/2000/svg" viewBox="0 0 24 24"><defs><style>.cls-1{stroke-width:0px;}</style></defs><path class="cls-1" d="M13.85,4.88c-1.43,0-2.6,1.17-2.6,2.6s1.17,2.6,2.6,2.6,2.6-1.17,2.6-2.6-1.17-2.6-2.6-2.6Z"/><path class="cls-1" d="M9.94,6.17h-1.23c-.41,0-.75-.34-.75-.75s.34-.75.75-.75h1.23c.41,0,.75.34.75.75s-.34.75-.75.75Z"/><path class="cls-1" d="M18.99,10.28h-1.23c-.41,0-.75-.34-.75-.75s.34-.75.75-.75h1.23c.41,0,.75.34.75.75s-.34.75-.75.75Z"/><path class="cls-1" d="M7.58,12.96c-1.05-.01-1.89-.87-1.88-1.92V3.91c0-1.04.83-1.89,1.87-1.91h12.54c1.05.01,1.89.87,1.88,1.92v7.13c0,1.04-.83,1.89-1.87,1.91H7.58ZM7.59,3.5c-.22,0-.39.19-.39.4v7.14c0,.23.18.41.4.41h12.52c.21,0,.39-.18.38-.4V3.91c0-.23-.18-.41-.4-.41H7.59ZM17.69,15.89l-2.77.92c-.05.02-.1.06-.12.11-.26.56-.82.91-1.43.91h-3.14c-.22,0-.39-.18-.39-.39s.18-.39.39-.39h3.14c.43,0,.78-.35.78-.78s-.35-.78-.78-.78h-2.75c-.9-.7-2-1.11-3.14-1.18h-1.62c-.49.02-.97.15-1.4.39l-2.35,1.18c-.06.03-.1.1-.1.17v4.24c0,.07.04.14.1.17.06.04.14.04.2,0l2.53-1.57c.2-.12.44-.15.67-.08,7.85,2.64,5.2,2.64,14.02-1.81.21-.08.31-.32.23-.53-.03-.09-.1-.16-.18-.21-.52-.45-1.23-.59-1.88-.37Z"/></svg>