<?xml version="1.0" encoding="UTF-8"?>
<svg id="Layer_1" data-name="Layer 1" xmlns="http://www.w3.org/2000/svg" viewBox="0 0 16 16">
  <defs>
    <style>
      .cls-1 {
        fill: #fff;
      }
    </style>
  </defs>
  <rect class="cls-1" width="16" height="16"/>
  <path d="M3.69,9.16c.11.02.21.06.31.1V3c0-.55.45-1,1-1h3v2.5c0,.83.67,1.5,1.5,1.5h2.5v3.15c.38.12.72.32,1,.59v-4.34c0-.4-.16-.78-.44-1.06l-2.91-2.9c-.28-.28-.67-.44-1.06-.44h-3.59c-1.1,0-2,.9-2,2v6.08h.03c.26,0,.49.04.66.08ZM9,2.21l2.79,2.79h-2.29c-.28,0-.5-.22-.5-.5v-2.29ZM2.63,10.07h-.94c-.38,0-.53.26-.53.47v3.91c0,.22.16.47.53.47h.94c.86,0,1.48-.58,1.48-1.33v-2.2c0-.76-.62-1.33-1.48-1.33ZM3.09,13.48c0,.34-.24.5-.47.5h-.47v-2.95h.47c.23,0,.47.16.47.49v1.96ZM6.44,10.01c-.8,0-1.48.58-1.48,1.33v2.32c0,.76.67,1.34,1.48,1.34s1.48-.58,1.48-1.34v-2.32c0-.75-.67-1.33-1.48-1.33ZM6.91,13.53c0,.35-.24.5-.47.5s-.46-.15-.46-.5v-2.08c0-.34.23-.5.46-.5s.47.16.47.5v2.08ZM11.74,13.5v.15c0,.76-.67,1.34-1.48,1.34s-1.48-.58-1.48-1.34v-2.32c0-.75.69-1.33,1.47-1.33.65,0,1.42.36,1.42,1.13v.04c0,.24-.19.47-.5.47s-.44-.23-.51-.42l-.02-.07c-.04-.14-.2-.2-.37-.2-.28,0-.47.2-.47.5v2.08c0,.35.23.5.47.5s.46-.15.46-.5v-.03c0-.24.16-.51.5-.51s.51.28.51.51Z"/>
</svg>