<svg width="16" height="16" viewBox="0 0 16 16" fill="none" xmlns="http://www.w3.org/2000/svg">
<rect width="16" height="16" fill="white"/>
<path d="M2.62915 13.5L1.98915 14.69C1.88915 14.88 1.70915 14.99 1.51915 14.99C1.13915 14.99 0.88915 14.61 1.04915 14.28L2.04915 12.42L1.16915 10.77C0.94915 10.34 1.26915 10 1.60915 10C1.75915 10 1.94915 10.07 2.07915 10.32L2.62915 11.35L3.17915 10.32C3.30915 10.07 3.50915 10 3.65915 10C3.99915 10 4.30915 10.34 4.08915 10.77L3.20915 12.42L4.20915 14.28C4.36915 14.6 4.11915 14.99 3.73915 14.99C3.53915 14.99 3.35915 14.88 3.26915 14.69L2.62915 13.5Z" fill="#242424"/>
<path d="M5.63915 14.92C5.29915 14.92 5.13915 14.7 5.13915 14.47V10.51C5.13915 10.27 5.29915 10 5.64915 10C5.99915 10 6.15915 10.27 6.15915 10.51V13.97H7.17915C7.53915 13.97 7.70915 14.23 7.70915 14.44C7.70915 14.65 7.54915 14.92 7.17915 14.92H5.63915Z" fill="#242424"/>
<path d="M8.30915 13.92L8.26915 13.75C8.18915 13.35 8.41915 13.08 8.73915 13.08C8.97915 13.08 9.15915 13.23 9.23915 13.53L9.27915 13.71C9.32915 13.97 9.51915 14.07 9.73915 14.07C10.0092 14.07 10.1992 13.91 10.1992 13.65C10.1992 13.44 10.0692 13.26 9.91915 13.14L9.05915 12.48C8.74915 12.24 8.38915 11.93 8.38915 11.32C8.38915 10.54 8.97915 10 9.79915 10C10.4292 10 11.1891 10.34 11.1891 11.17V11.2C11.1891 11.44 11.0092 11.65 10.7092 11.65C10.4292 11.65 10.2992 11.46 10.2392 11.28L10.2092 11.2C10.1392 10.98 9.95915 10.93 9.80915 10.93C9.54915 10.93 9.40915 11.09 9.40915 11.31C9.40915 11.52 9.52915 11.65 9.60915 11.72L10.6891 12.54C10.8391 12.66 11.1992 12.99 11.1992 13.63C11.1992 14.49 10.5592 15.01 9.74915 15.01C8.93915 15.01 8.44915 14.54 8.31915 13.94L8.30915 13.92Z" fill="#242424"/>
<path d="M3.69 9.16C3.8 9.18 3.9 9.22 4 9.26V3C4 2.45 4.45 2 5 2H8V4.5C8 5.33 8.67 6 9.5 6H12V9.15C12.38 9.27 12.72 9.47 13 9.74V5.4C13 5 12.84 4.62 12.56 4.34L9.65 1.44C9.37 1.16 8.98 1 8.59 1H5C3.9 1 3 1.9 3 3V9.08H3.03C3.29 9.08 3.52 9.12 3.69 9.16ZM9 2.21L11.79 5H9.5C9.22 5 9 4.78 9 4.5V2.21Z" fill="#242424"/>
</svg>
