<?xml version="1.0" encoding="UTF-8"?>
<svg id="Layer_1" xmlns="http://www.w3.org/2000/svg" version="1.1" viewBox="0 0 16 16">
  <!-- Generator: Adobe Illustrator 29.0.0, SVG Export Plug-In . SVG Version: 2.1.0 Build 186)  -->
  <path d="M3.7,9.2c.1,0,.2,0,.3.1V3c0-.5.4-1,1-1h3v2.5c0,.8.7,1.5,1.5,1.5h2.5v3.1c.4.1.7.3,1,.6v-4.3c0-.4-.2-.8-.4-1.1l-2.9-2.9c-.3-.3-.7-.4-1.1-.4h-3.6c-1.1,0-2,.9-2,2v6.1h0c.3,0,.5,0,.7,0ZM9,2.2l2.8,2.8h-2.3c-.3,0-.5-.2-.5-.5v-2.3ZM2.6,10.1h-.9c-.4,0-.5.3-.5.5v3.9c0,.2.2.5.5.5h.9c.9,0,1.5-.6,1.5-1.3v-2.2c0-.8-.6-1.3-1.5-1.3h0ZM3.1,13.5c0,.3-.2.5-.5.5h-.5v-2.9h.5c.2,0,.5.2.5.5v2ZM6.4,10c-.8,0-1.5.6-1.5,1.3v2.3c0,.8.7,1.3,1.5,1.3s1.5-.6,1.5-1.3v-2.3c0-.8-.7-1.3-1.5-1.3ZM6.9,13.5c0,.4-.2.5-.5.5s-.5-.1-.5-.5v-2.1c0-.3.2-.5.5-.5s.5.2.5.5v2.1ZM11.7,13.5h0c0,.9-.7,1.5-1.5,1.5s-1.5-.6-1.5-1.3v-2.3c0-.8.7-1.3,1.5-1.3s1.4.4,1.4,1.1h0c0,.3-.2.5-.5.5s-.4-.2-.5-.4h0c0-.2-.2-.3-.4-.3-.3,0-.5.2-.5.5v2.1c0,.4.2.5.5.5s.5-.1.5-.5h0c0-.3.2-.5.5-.5s.5.3.5.5Z"/>
</svg>