<svg viewBox="0 0 16 16" fill="none" xmlns="http://www.w3.org/2000/svg">
<path d="M7.005 12C7.005 13.66 5.66389 15 4.0025 15C2.34112 15 1 13.66 1 12C1 10.34 2.34112 9 4.0025 9C5.66389 9 7.005 10.34 7.005 12ZM3.00167 13C3.00167 13.26 3.2819 13.42 3.50209 13.29L5.17348 12.29C5.39366 12.16 5.39366 11.85 5.17348 11.72L3.50209 10.72C3.2819 10.59 3.00167 10.75 3.00167 11.01V13.01V13Z M12.5696 4.35L9.65721 1.44C9.37698 1.16 8.99666 1 8.59633 1H5.00334C3.90242 1 3.00167 1.9 3.00167 3V8.14C3.32194 8.06 3.65221 8 4.0025 8V3C4.0025 2.45 4.45288 2 5.00334 2H8.00584V4.5C8.00584 5.33 8.6764 6 9.50709 6H12.0092V13C12.0092 13.55 11.5588 14 11.0083 14H7.44537C7.22519 14.38 6.94495 14.71 6.61468 15H10.9983C12.0992 15 13 14.1 13 13V5.41C13 5.01 12.8399 4.63 12.5596 4.35H12.5696ZM9.50709 5C9.22686 5 9.00667 4.78 9.00667 4.5V2.21L11.799 5H9.50709Z" fill="black"/>
</svg>
