<svg width="16" height="16" viewBox="0 0 16 16" fill="none" xmlns="http://www.w3.org/2000/svg">
<rect width="16" height="16" fill="white"/>
<path d="M3.69 9.16C3.8 9.18 3.9 9.22 4 9.26V3C4 2.45 4.45 2 5 2H8V4.5C8 5.33 8.67 6 9.5 6H12V9.15C12.38 9.27 12.72 9.47 13 9.74V5.4C13 5 12.84 4.62 12.56 4.34L9.65 1.44C9.37 1.16 8.98 1 8.59 1H5C3.9 1 3 1.9 3 3V9.08H3.03C3.29 9.08 3.52 9.12 3.69 9.16ZM9 2.21L11.79 5H9.5C9.22 5 9 4.78 9 4.5V2.21Z" fill="#242424"/>
<path d="M4 10.98C4 10.98 4 10.98 4 10.97C3.85 10.55 3.48 10.24 3 10.13C2.87 10.1 2.74 10.08 2.6 10.08H1.66C1.28 10.08 1.13 10.34 1.13 10.55V14.46C1.13 14.68 1.29 14.93 1.66 14.93H2.6C3.05 14.93 3.42 14.76 3.68 14.5C3.82 14.37 3.93 14.21 3.99 14.03C4.04 13.9 4.07 13.75 4.07 13.6V11.4C4.07 11.25 4.04 11.11 3.99 10.98H4ZM3.07 13.48C3.07 13.81 2.83 13.97 2.61 13.97H2.14V11.02H2.61C2.77 11.02 2.92 11.1 3.01 11.26C3.05 11.33 3.08 11.41 3.08 11.51V13.47L3.07 13.48Z" fill="#242424"/>
<path d="M11.24 12.99C10.9 12.99 10.74 13.27 10.74 13.5V13.53C10.74 13.79 10.61 13.94 10.45 14C10.39 14.02 10.34 14.03 10.28 14.03C10.22 14.03 10.16 14.02 10.1 14C9.94 13.94 9.81 13.79 9.81 13.53V11.45C9.81 11.15 10.01 10.95 10.28 10.95C10.45 10.95 10.61 11.01 10.65 11.15L10.67 11.22C10.73 11.42 10.87 11.64 11.18 11.64C11.49 11.64 11.68 11.4 11.68 11.17V11.13C11.68 10.35 10.92 10 10.26 10C9.6 10 9.06 10.38 8.87 10.93C8.82 11.06 8.79 11.19 8.79 11.33V13.65C8.79 13.77 8.82 13.89 8.85 14H8.87C8.87 14 8.87 14.04 8.87 14.06C9.06 14.61 9.62 14.99 10.28 14.99C11.09 14.99 11.76 14.41 11.76 13.65V13.49C11.76 13.25 11.59 12.98 11.25 12.98L11.24 12.99Z" fill="#242424"/>
<path d="M7.84 10.93C7.65 10.39 7.09 10.01 6.44 10.01C5.79 10.01 5.23 10.4 5.04 10.94C5 11.07 4.97 11.2 4.97 11.34V13.66C4.97 13.78 5 13.9 5.03 14.01H5.05C5.05 14.01 5.05 14.05 5.05 14.06C5.24 14.61 5.8 15 6.45 15C7.1 15 7.66 14.62 7.85 14.07C7.85 14.05 7.85 14.03 7.85 14.01H7.87C7.9 13.9 7.93 13.79 7.93 13.66V11.34C7.93 11.2 7.9 11.06 7.85 10.94L7.84 10.93ZM6.44 14.03C6.38 14.03 6.32 14.02 6.27 14C6.11 13.94 5.98 13.79 5.98 13.53V11.45C5.98 11.11 6.21 10.95 6.44 10.95C6.67 10.95 6.9 11.11 6.9 11.45V13.53C6.9 13.79 6.77 13.94 6.61 14C6.55 14.02 6.5 14.03 6.44 14.03Z" fill="#242424"/>
</svg>
