<svg width="16" height="16" viewBox="0 0 16 16" fill="none" xmlns="http://www.w3.org/2000/svg">
<path d="M3.58804 9.16C3.69924 9.18 3.80034 9.22 3.90143 9.26V3C3.90143 2.45 4.35636 2 4.91238 2H7.94524V4.5C7.94524 5.33 8.62258 6 9.46167 6H11.989V9.15C12.3732 9.27 12.7169 9.47 13 9.74V5.4C13 5 12.8382 4.62 12.5552 4.34L9.61331 1.44C9.33024 1.16 8.93597 1 8.5417 1H4.91238C3.80034 1 2.89048 1.9 2.89048 3V9.08H2.92081C3.18366 9.08 3.41618 9.12 3.58804 9.16ZM8.95619 2.21L11.7767 5H9.46167C9.1786 5 8.95619 4.78 8.95619 4.5V2.21Z" fill="black"/>
<path d="M3.90143 10.98C3.90143 10.98 3.90143 10.98 3.90143 10.97C3.74979 10.55 3.37574 10.24 2.89048 10.13C2.75906 10.1 2.62763 10.08 2.4861 10.08H1.5358C1.15164 10.08 1 10.34 1 10.55V14.46C1 14.68 1.16175 14.93 1.5358 14.93H2.4861C2.94103 14.93 3.31508 14.76 3.57793 14.5C3.71946 14.37 3.83067 14.21 3.89132 14.03C3.94187 13.9 3.9722 13.75 3.9722 13.6V11.4C3.9722 11.25 3.94187 11.11 3.89132 10.98H3.90143ZM2.96125 13.48C2.96125 13.81 2.71862 13.97 2.49621 13.97H2.02106V11.02H2.49621C2.65796 11.02 2.8096 11.1 2.90059 11.26C2.94103 11.33 2.97136 11.41 2.97136 11.51V13.47L2.96125 13.48Z" fill="black"/>
<path d="M11.2207 12.99C10.877 12.99 10.7152 13.27 10.7152 13.5V13.53C10.7152 13.79 10.5838 13.94 10.4221 14C10.3614 14.02 10.3109 14.03 10.2502 14.03C10.1896 14.03 10.1289 14.02 10.0682 14C9.90649 13.94 9.77506 13.79 9.77506 13.53V11.45C9.77506 11.15 9.97725 10.95 10.2502 10.95C10.4221 10.95 10.5838 11.01 10.6243 11.15L10.6445 11.22C10.7051 11.42 10.8467 11.64 11.1601 11.64C11.4735 11.64 11.6655 11.4 11.6655 11.17V11.13C11.6655 10.35 10.8972 10 10.23 10C9.56276 10 9.01685 10.38 8.82477 10.93C8.77422 11.06 8.74389 11.19 8.74389 11.33V13.65C8.74389 13.77 8.77422 13.89 8.80455 14H8.82477C8.82477 14 8.82477 14.04 8.82477 14.06C9.01685 14.61 9.58298 14.99 10.2502 14.99C11.0691 14.99 11.7464 14.41 11.7464 13.65V13.49C11.7464 13.25 11.5746 12.98 11.2308 12.98L11.2207 12.99Z" fill="black"/>
<path d="M7.78349 10.93C7.59141 10.39 7.02527 10.01 6.36816 10.01C5.71104 10.01 5.1449 10.4 4.95282 10.94C4.91238 11.07 4.88206 11.2 4.88206 11.34V13.66C4.88206 13.78 4.91238 13.9 4.94271 14.01H4.96293C4.96293 14.01 4.96293 14.05 4.96293 14.06C5.15501 14.61 5.72115 15 6.37826 15C7.03538 15 7.60152 14.62 7.7936 14.07C7.7936 14.05 7.7936 14.03 7.7936 14.01H7.81382C7.84414 13.9 7.87447 13.79 7.87447 13.66V11.34C7.87447 11.2 7.84414 11.06 7.7936 10.94L7.78349 10.93ZM6.36816 14.03C6.3075 14.03 6.24684 14.02 6.19629 14C6.03454 13.94 5.90312 13.79 5.90312 13.53V11.45C5.90312 11.11 6.13564 10.95 6.36816 10.95C6.60067 10.95 6.83319 11.11 6.83319 11.45V13.53C6.83319 13.79 6.70177 13.94 6.54002 14C6.47936 14.02 6.42881 14.03 6.36816 14.03Z" fill="black"/>
</svg>
