<svg width="16" height="16" viewBox="0 0 16 16" fill="none" xmlns="http://www.w3.org/2000/svg">
<path d="M4.68 8.04C4.87 8.12 4.99 8.3 4.99 8.5V14.5C4.99 14.7 4.87 14.88 4.68 14.96C4.49 15.04 4.28 14.99 4.14 14.85L2.29 13H1.5C1.22 13 1 12.78 1 12.5V10.5C1 10.22 1.22 10 1.5 10H2.29L4.14 8.15C4.28 8.01 4.5 7.96 4.68 8.04Z" fill="black"/>
<path d="M8.64 8.2C8.76 8.36 8.93 8.65 9.08 9.07C9.33 9.75 9.49 10.56 9.49 11.5C9.49 12.44 9.34 13.25 9.08 13.93C8.92 14.35 8.76 14.64 8.64 14.8C8.47 15.02 8.16 15.07 7.94 14.9C7.74 14.75 7.69 14.49 7.79 14.28L7.91 14.1C7.98 13.99 8.06 13.81 8.15 13.58C8.36 13.01 8.49 12.32 8.49 11.51C8.49 10.7 8.36 10.01 8.15 9.44C8.06 9.21 7.98 9.03 7.91 8.92L7.84 8.81C7.67 8.59 7.72 8.28 7.94 8.11C8.16 7.94 8.47 7.99 8.64 8.21V8.2Z" fill="black"/>
<path d="M7.21 9.97C7.11 9.66 7.01 9.42 6.93 9.28C6.81 9.03 6.51 8.93 6.26 9.06C6.01 9.18 5.91 9.48 6.04 9.73C6.09 9.84 6.18 10.03 6.26 10.29C6.4 10.71 6.48 11.13 6.48 11.51C6.48 11.89 6.4 12.31 6.26 12.73C6.21 12.88 6.16 13.02 6.11 13.12L6.03 13.29C5.91 13.54 6.01 13.84 6.25 13.96C6.5 14.08 6.8 13.98 6.92 13.74C6.99 13.6 7.1 13.36 7.2 13.05C7.37 12.53 7.48 12.02 7.48 11.52C7.48 11.02 7.38 10.5 7.2 9.99L7.21 9.97Z" fill="black"/>
<path d="M12.57 4.35L9.65 1.44C9.37 1.16 8.99 1 8.59 1H5C3.9 1 3 1.9 3 3V7.86L3.42 7.44C3.58 7.28 3.78 7.16 4 7.09V3C4 2.45 4.45 2 5 2H8V4.5C8 5.33 8.67 6 9.5 6H12V13C12 13.55 11.55 14 11 14H10.1C10.07 14.09 10.05 14.19 10.01 14.28C9.91 14.55 9.79 14.79 9.68 15H11C12.1 15 13 14.1 13 13V5.41C13 5.01 12.84 4.63 12.56 4.35H12.57ZM9.5 5C9.22 5 9 4.78 9 4.5V2.21L11.79 5H9.5Z" fill="black"/>
</svg>
