<svg width="16" height="16" viewBox="0 0 16 16" fill="none" xmlns="http://www.w3.org/2000/svg">
<path d="M5.28 10C4.9 10 4.75 10.26 4.75 10.47V14.41C4.75 14.65 4.91 14.92 5.26 14.92C5.61 14.92 5.77 14.65 5.77 14.41V12.96H5.99C6.93 12.96 7.6 12.34 7.6 11.5V11.45C7.6 10.62 6.93 10 5.99 10H5.28ZM6.57 11.5C6.57 11.85 6.27 12.01 5.97 12.01H5.75V10.95H5.97C6.27 10.95 6.57 11.11 6.57 11.46V11.5Z" fill="black"/>
<path d="M1.53 10C1.15 10 1 10.26 1 10.47V14.41C1 14.65 1.16 14.92 1.51 14.92C1.86 14.92 2.02 14.65 2.02 14.41V12.96H2.24C3.18 12.96 3.85 12.34 3.85 11.5V11.45C3.85 10.62 3.18 10 2.24 10H1.53ZM2.82 11.5C2.82 11.85 2.52 12.01 2.22 12.01H2V10.95H2.22C2.52 10.95 2.82 11.11 2.82 11.46V11.5Z" fill="black"/>
<path d="M10.27 10C10.63 10 10.79 10.26 10.79 10.47C10.79 10.68 10.63 10.95 10.27 10.95H9.76V14.41C9.76 14.65 9.6 14.92 9.25 14.92C8.9 14.92 8.74 14.65 8.74 14.41V10.95H8.24C7.87 10.95 7.71 10.69 7.71 10.48C7.71 10.27 7.86 10 8.24 10H10.27Z" fill="black"/>
<path d="M12.56 4.35L9.65 1.44C9.37 1.16 8.99 1 8.59 1H5C3.9 1 3 1.9 3 3V9.15C3.38 9.23 3.71 9.39 4 9.59V3C4 2.45 4.45 2 5 2H8V4.5C8 5.33 8.67 6 9.5 6H12V13C12 13.55 11.55 14 11 14H10.76V14.49C10.76 14.67 10.72 14.84 10.67 15H11C12.1 15 13 14.1 13 13V5.41C13 5.01 12.84 4.63 12.56 4.35ZM9.5 5C9.22 5 9 4.78 9 4.5V2.21L11.79 5H9.5Z" fill="black"/>
</svg>
