<svg width="16" height="16" viewBox="0 0 16 16" fill="none" xmlns="http://www.w3.org/2000/svg">
<path d="M2.62915 13.4911L1.98915 14.6802C1.88915 14.8701 1.70915 14.98 1.51915 14.98C1.13915 14.98 0.88915 14.6003 1.04915 14.2705L2.04915 12.4118L1.16915 10.763C0.94915 10.3333 1.26915 9.99358 1.60915 9.99358C1.75915 9.99358 1.94915 10.0635 2.07915 10.3133L2.62915 11.3426L3.17915 10.3133C3.30915 10.0635 3.50915 9.99358 3.65915 9.99358C3.99915 9.99358 4.30915 10.3333 4.08915 10.763L3.20915 12.4118L4.20915 14.2705C4.36915 14.5903 4.11915 14.98 3.73915 14.98C3.53915 14.98 3.35915 14.8701 3.26915 14.6802L2.62915 13.4911Z" fill="black"/>
<path d="M5.63915 14.9101C5.29915 14.9101 5.13915 14.6902 5.13915 14.4604V10.5032C5.13915 10.2634 5.29915 9.99358 5.64915 9.99358C5.99915 9.99358 6.15915 10.2634 6.15915 10.5032V13.9607H7.17915C7.53915 13.9607 7.70915 14.2206 7.70915 14.4304C7.70915 14.6403 7.54915 14.9101 7.17915 14.9101H5.63915Z" fill="black"/>
<path d="M8.30915 13.9108L8.26915 13.7409C8.18915 13.3412 8.41915 13.0714 8.73915 13.0714C8.97915 13.0714 9.15915 13.2213 9.23915 13.5211L9.27915 13.7009C9.32915 13.9607 9.51915 14.0607 9.73915 14.0607C10.0092 14.0607 10.1992 13.9008 10.1992 13.641C10.1992 13.4311 10.0692 13.2512 9.91915 13.1313L9.05915 12.4718C8.74915 12.232 8.38915 11.9222 8.38915 11.3126C8.38915 10.5332 8.97915 9.99358 9.79915 9.99358C10.4292 9.99358 11.1891 10.3333 11.1891 11.1627V11.1927C11.1891 11.4325 11.0092 11.6424 10.7092 11.6424C10.4292 11.6424 10.2992 11.4525 10.2392 11.2727L10.2092 11.1927C10.1392 10.9729 9.95915 10.9229 9.80915 10.9229C9.54915 10.9229 9.40915 11.0828 9.40915 11.3026C9.40915 11.5125 9.52915 11.6424 9.60915 11.7123L10.6891 12.5318C10.8391 12.6517 11.1992 12.9814 11.1992 13.621C11.1992 14.4804 10.5592 15 9.74915 15C8.93915 15 8.44915 14.5303 8.31915 13.9308L8.30915 13.9108Z" fill="black"/>
<path d="M3.69 9.15418C3.8 9.17416 3.9 9.21413 4 9.2541V2.99857C4 2.44897 4.45 1.99929 5 1.99929H8V4.4975C8 5.32691 8.67 5.99643 9.5 5.99643H12V9.14418C12.38 9.2641 12.72 9.46395 13 9.73376V5.39686C13 4.99715 12.84 4.61742 12.56 4.33762L9.65 1.43969C9.37 1.15989 8.98 1 8.59 1H5C3.9 1 3 1.89936 3 2.99857V9.07423H3.03C3.29 9.07423 3.52 9.1142 3.69 9.15418ZM9 2.20914L11.79 4.99714H9.5C9.22 4.99714 9 4.7773 9 4.4975V2.20914Z" fill="black"/>
</svg>
