<?xml version="1.0" encoding="UTF-8"?>
<svg id="Layer_1" data-name="Layer 1" xmlns="http://www.w3.org/2000/svg" viewBox="0 0 16 16">
  <defs>
    <style>
      .cls-1 {
        fill: none;
      }
    </style>
  </defs>
  <g>
    <path class="cls-1" d="M1.68,10.07c-.38,0-.53.26-.53.47v3.94c0,.24.16.51.51.51s.51-.27.51-.51v-1.45h.22c.23,0,.43-.04.62-.1v-2.75c-.19-.07-.4-.1-.62-.1h-.69ZM2.98,11.53v.04c0,.35-.3.51-.6.51h-.22v-1.06h.22c.3,0,.6.16.6.51Z"/>
    <path class="cls-1" d="M9,4.5c0,.28.22.5.5.5h2.29l-2.79-2.79v2.29Z"/>
    <g>
      <path class="cls-1" d="M2.38,11.03h-.22v1.06h.22c.3,0,.6-.16.6-.51v-.04c0-.35-.3-.51-.6-.51Z"/>
      <path d="M3.93,11.12c.04.13.06.26.06.4,0-.14-.03-.27-.06-.4Z"/>
      <path d="M3.99,11.58c0,.14-.03.28-.06.4.04-.13.06-.26.06-.4Z"/>
      <path d="M3,10.18c.14.05.26.12.38.19-.27-.19-.61-.3-1-.3h-.69c-.38,0-.53.26-.53.47v3.94c0,.24.16.51.51.51s.51-.27.51-.51v-1.45h.22c.39,0,.73-.11,1-.3-.11.08-.24.15-.38.19v-2.75ZM2.98,11.57c0,.35-.3.51-.6.51h-.22v-1.06h.22c.3,0,.6.16.6.51v.04Z"/>
      <path d="M3.72,10.69c.08.1.13.22.18.34-.04-.12-.1-.24-.18-.34Z"/>
      <path d="M3.72,12.42c-.08.11-.18.2-.28.28.11-.08.21-.17.28-.28Z"/>
      <path d="M3.72,12.41c.08-.1.13-.22.18-.35-.05.12-.1.24-.18.35Z"/>
      <path d="M3.43,10.41c.11.08.2.17.28.28-.08-.11-.18-.2-.28-.28Z"/>
      <path d="M3.93,11.98c.04-.13.06-.26.06-.4v-.05c0-.14-.03-.27-.06-.4,0-.03-.02-.06-.03-.09-.05-.12-.1-.24-.18-.34,0,0,0,0,0,0-.08-.11-.18-.2-.28-.28-.02-.01-.04-.03-.06-.04-.11-.08-.24-.15-.38-.19v2.75c.14-.05.26-.12.38-.19.02-.01.04-.03.06-.04.11-.08.21-.17.28-.28,0,0,0,0,0,0,.08-.1.13-.22.18-.35.01-.03.02-.06.03-.09Z"/>
    </g>
  </g>
  <g>
    <path class="cls-1" d="M9,4.5c0,.28.22.5.5.5h2.29l-2.79-2.79v2.29Z"/>
    <path class="cls-1" d="M5.97,13.04c.94,0,1.61-.62,1.61-1.46v-.05c0-.83-.67-1.45-1.61-1.45h-.69c-.38,0-.53.26-.53.47v3.41c.08.02.17.04.26.04h.75v-.96h.22ZM5.75,11.03h.22c.3,0,.6.16.6.51v.04c0,.35-.3.51-.6.51h-.22v-1.06Z"/>
    <path d="M5.97,10.07h-.69c-.38,0-.53.26-.53.47v3.94c0,.24.16.51.51.51s.51-.27.51-.51v-1.45h.22c.94,0,1.61-.62,1.61-1.46v-.05c0-.83-.67-1.45-1.61-1.45ZM6.57,11.57c0,.35-.3.51-.6.51h-.22v-1.06h.22c.3,0,.6.16.6.51v.04Z"/>
  </g>
  <g>
    <path d="M10.27,10.07c.36,0,.52.26.52.47s-.16.48-.52.48h-.51v3.46c0,.24-.16.51-.51.51s-.51-.27-.51-.51v-3.46h-.5c-.37,0-.53-.26-.53-.47s.15-.48.53-.48h2.03Z"/>
    <g>
      <path class="cls-1" d="M9,4.5c0,.28.22.5.5.5h2.29l-2.79-2.79v2.29Z"/>
      <path d="M12.56,4.35l-2.91-2.91c-.28-.28-.66-.44-1.06-.44h-3.59c-1.1,0-2,.9-2,2v6.15c.38.08.71.24,1,.44V3c0-.55.45-1,1-1h3v2.5c0,.83.67,1.5,1.5,1.5h2.5v7c0,.55-.45,1-1,1h-.24v.49c0,.18-.04.35-.09.51h.33c1.1,0,2-.9,2-2v-7.59c0-.4-.16-.78-.44-1.06ZM9.5,5c-.28,0-.5-.22-.5-.5v-2.29l2.79,2.79h-2.29Z"/>
    </g>
  </g>
</svg>