<?xml version="1.0" encoding="UTF-8"?>
<svg id="Layer_1" data-name="Layer 1" xmlns="http://www.w3.org/2000/svg" viewBox="0 0 16 16">
  <defs>
    <style>
      .cls-1 {
        fill: none;
      }
    </style>
  </defs>
  <path d="M3.17,10.07c.38,0,.65.34.49.74l-1.53,3.16h1.13c.37,0,.53.26.53.47s-.15.48-.53.48h-1.79c-.38,0-.67-.32-.5-.71l1.54-3.19h-1.06c-.36,0-.52-.26-.52-.48s.15-.47.52-.47h1.73Z"/>
  <path d="M5.54,14.49c0,.24-.15.51-.51.51s-.51-.27-.51-.51v-3.97c0-.24.16-.51.51-.51s.51.27.51.51v3.97Z"/>
  <path d="M7.64,14.49c0,.24-.15.51-.51.51s-.51-.27-.51-.51v-3.94c0-.22.16-.47.53-.47h.69c.94,0,1.61.62,1.61,1.45v.05c0,.84-.67,1.46-1.61,1.46h-.22v1.45ZM7.85,12.08c.3,0,.6-.16.6-.51v-.04c0-.35-.3-.51-.6-.51h-.22v1.06h.22Z"/>
  <g>
    <path class="cls-1" d="M9,4.5c0,.28.22.5.5.5h2.29l-2.79-2.79v2.29Z"/>
    <path d="M12.56,4.35l-2.91-2.91c-.28-.28-.66-.44-1.06-.44h-3.59c-1.1,0-2,.9-2,2v6.07h.17c.3,0,.58.09.83.24V3c0-.55.45-1,1-1h3v2.5c0,.83.67,1.5,1.5,1.5h2.5v7c0,.55-.45,1-1,1h-2.36v.49c0,.18-.04.35-.09.51h2.46c1.1,0,2-.9,2-2v-7.59c0-.4-.16-.78-.44-1.06ZM9.5,5c-.28,0-.5-.22-.5-.5v-2.29l2.79,2.79h-2.29Z"/>
  </g>
</svg>