<?xml version="1.0" encoding="UTF-8"?>
<svg id="Layer_1" data-name="Layer 1" xmlns="http://www.w3.org/2000/svg" viewBox="0 0 12.01 14">
  <path d="M2.82,8.68c.14.06.24.2.24.35v4.59c0,.15-.09.29-.24.35-.14.06-.31.03-.42-.08l-1.42-1.42H.38c-.21,0-.38-.17-.38-.38v-1.53c0-.21.17-.38.38-.38h.61l1.42-1.42c.11-.11.27-.14.42-.08Z"/>
  <path d="M4.76,10.15c-.08-.23-.16-.42-.21-.53-.09-.19-.32-.27-.51-.17-.19.09-.27.32-.17.51.04.08.1.23.17.43.11.32.17.64.17.93s-.06.61-.17.93c-.04.12-.08.22-.11.3l-.06.13c-.09.19-.02.42.17.51.19.09.42.02.51-.17.06-.11.13-.29.21-.53.13-.39.21-.79.21-1.17s-.08-.78-.21-1.17Z"/>
  <path d="M5.85,8.8c.09.12.22.35.34.67.19.52.31,1.14.31,1.85s-.12,1.33-.31,1.85c-.12.32-.25.55-.34.67-.13.17-.37.2-.54.08-.15-.11-.19-.31-.11-.48l.09-.14c.05-.09.12-.22.18-.4.16-.44.26-.96.26-1.59s-.1-1.15-.26-1.59c-.07-.18-.13-.31-.18-.4l-.05-.08c-.13-.17-.09-.41.08-.54.17-.13.41-.09.54.08Z"/>
  <path d="M11.57,3.35L8.66.44c-.28-.28-.66-.44-1.06-.44h-3.59c-1.1,0-2,.9-2,2v5.84c.2-.12.43-.2.67-.2h0c.11,0,.22.04.33.07V2c0-.55.45-1,1-1h3v2.5c0,.83.67,1.5,1.5,1.5h2.5v7c0,.55-.45,1-1,1h-2.74c-.05.18-.08.36-.14.53-.06.17-.13.33-.21.47h3.09c1.1,0,2-.9,2-2v-7.59c0-.4-.16-.78-.44-1.06ZM8.51,4c-.28,0-.5-.22-.5-.5V1.21l2.79,2.79h-2.29Z"/>
</svg>