<svg width="20" height="20" viewBox="0 0 20 20" fill="none" xmlns="http://www.w3.org/2000/svg">
<path fill-rule="evenodd" clip-rule="evenodd" d="M7.29208 2.0043C6.6297 2.10291 6.15739 2.3192 5.67699 2.74388C5.26049 3.11207 4.9135 3.72599 4.78733 4.31796C4.74355 4.5233 4.72587 5.02765 4.75472 5.24828C4.84369 5.92871 5.10064 6.45847 5.60176 6.99466C5.70103 7.10087 6.61524 8.06629 7.63335 9.14004L9.48447 11.0923L9.48345 12.3464C9.48266 13.3236 9.47792 13.5935 9.46196 13.5683C9.10729 13.0096 8.91562 12.761 8.57316 12.4156C8.19954 12.0387 7.85724 11.7738 7.38021 11.4923C6.44133 10.9384 5.10521 10.5554 3.78902 10.4631C3.40655 10.4362 3.27726 10.4659 3.13598 10.6131C3.02358 10.7302 2.99767 10.8164 3.00016 11.0649C3.0046 11.5071 3.08712 12.1272 3.21912 12.7104C3.59623 14.3764 4.33817 15.6455 5.435 16.5007C6.31912 17.1901 7.46919 17.6639 8.79666 17.8857C9.70873 18.0381 10.2919 18.0381 11.204 17.8857C12.5305 17.6641 13.6816 17.1898 14.5656 16.5007C15.4764 15.7907 16.1596 14.7665 16.568 13.4987C16.8167 12.7266 16.9959 11.7153 16.9999 11.0619C17.0015 10.8134 16.9761 10.7292 16.8647 10.6131C16.7234 10.4659 16.5941 10.4362 16.2116 10.4631C15.6712 10.5009 15.1545 10.582 14.6172 10.7133C12.9966 11.1094 11.7703 11.8641 10.9323 12.9811C10.8459 13.0963 10.7187 13.286 10.5387 13.5684C10.5227 13.5935 10.518 13.3235 10.5172 12.3464L10.5162 11.0923L12.3673 9.14004C13.3854 8.06629 14.2996 7.10087 14.3989 6.99466C14.8192 6.54493 15.0495 6.13551 15.1751 5.61481C15.2517 5.29713 15.2681 5.13007 15.2567 4.78158C15.2453 4.43503 15.2158 4.26553 15.1155 3.97033C14.9069 3.35666 14.5213 2.85324 13.9879 2.49831C13.1362 1.93154 11.9848 1.86178 11.0664 2.32129C10.7409 2.48415 10.5774 2.60606 10.2453 2.93352L10.0003 3.17513L9.74668 2.92484C9.46528 2.64712 9.35922 2.5606 9.12155 2.41493C8.83612 2.23996 8.57366 2.13472 8.21926 2.05316C8.04002 2.0119 7.97217 2.00539 7.67897 2.00131C7.49455 1.99873 7.32045 2.00008 7.29208 2.0043ZM7.37806 3.02421C7.35914 3.02794 7.30111 3.03923 7.24909 3.04927C6.51395 3.19124 5.90933 3.81518 5.77835 4.567C5.69095 5.06863 5.82547 5.64446 6.12264 6.04087C6.20311 6.14823 9.97921 10.1435 10.0002 10.1435C10.0212 10.1435 13.7976 6.14797 13.8779 6.04077C13.9901 5.89096 14.079 5.7187 14.1428 5.52721C14.558 4.28138 13.6919 3.0538 12.3905 3.04348C12.1412 3.0415 11.9791 3.06602 11.7628 3.13841C11.3941 3.26187 11.2455 3.36929 10.7134 3.89744C10.2289 4.37835 10.1992 4.39925 10.0003 4.39925C9.80143 4.39925 9.77171 4.37835 9.28727 3.89751C9.0496 3.66159 8.79749 3.42766 8.72704 3.37768C8.48859 3.20849 8.20401 3.08611 7.9369 3.03788C7.8191 3.01661 7.46073 3.00784 7.37806 3.02421ZM4.05087 11.548C4.0513 11.6866 4.17614 12.3711 4.25971 12.6931C4.72226 14.4753 5.60258 15.6148 7.0401 16.2921C7.66487 16.5865 8.46395 16.8153 9.23251 16.9199C9.34457 16.9352 9.44055 16.9433 9.44581 16.938C9.47374 16.91 9.33623 16.13 9.2338 15.7353C8.7037 13.6929 7.59999 12.4859 5.69293 11.863C5.26962 11.7247 4.81654 11.6183 4.37225 11.5527C4.07764 11.5093 4.05075 11.5089 4.05087 11.548ZM15.6095 11.5539C14.1693 11.774 12.9809 12.3092 12.1861 13.0955C11.5212 13.7533 11.0574 14.616 10.7669 15.7353C10.6644 16.13 10.5269 16.91 10.5548 16.938C10.5836 16.967 11.306 16.8381 11.7284 16.7287C12.8472 16.4391 13.6846 15.991 14.3431 15.3298C15.009 14.6612 15.4652 13.7923 15.7502 12.6499C15.8389 12.2944 15.9493 11.6846 15.9498 11.548C15.9499 11.5094 15.8941 11.5104 15.6095 11.5539Z" fill="#212327"/>
</svg>
