<?xml version="1.0" encoding="UTF-8"?><svg id="Layer_1" xmlns="http://www.w3.org/2000/svg" viewBox="0 0 24 24"><defs><style>.cls-1{stroke-width:0px;}</style></defs><path class="cls-1" d="m10,11.72c3.88.14,4.55,1.34,4.55,1.34h0s0,0,0,0c.02.07.06.14.1.2,0,0,0,0,0,0,.11.16.28.28.48.32.04,0,.08.01.13.01.31,0,.6-.19.7-.5,0-.01.64-1.25,4.51-1.39.78.05,1.46-.54,1.53-1.4V3.33c-.08-.81-.81-1.42-1.56-1.33-2.95.11-4.43.81-5.17,1.43-.74-.62-2.21-1.32-5.13-1.43-.8-.07-1.53.52-1.59,1.27,0,.04-.01.09-.01.13v6.99c.08.78.75,1.36,1.47,1.33Zm6.02-6.92c.21-.27,1.16-1.18,4.48-1.31.01,0,0-.1,0-.1,0,.01,0,.02,0,.04v6.79h-.02c-2.2.07-3.58.48-4.46.93v-6.35Zm-5.98-1.31c3.32.12,4.27,1.03,4.48,1.31v6.35c-.88-.46-2.27-.86-4.46-.94h0s0,.1-.02.1V3.5Zm11.21,9.2c-.41,0-.75.34-.75.75v2.88c0,.27-.22.48-.48.48H3.98c-.27,0-.48-.22-.48-.48V6.46c0-.27.22-.48.48-.48h2.26c.41,0,.75-.34.75-.75s-.34-.75-.75-.75h-2.26c-1.09,0-1.98.89-1.98,1.98v9.87c0,1.09.89,1.98,1.98,1.98h4.66l-.37,2.2h-1.21c-.41,0-.75.34-.75.75s.34.75.75.75h9.87c.41,0,.75-.34.75-.75s-.34-.75-.75-.75h-1.21l-.37-2.2h4.66c1.09,0,1.98-.89,1.98-1.98v-2.88c0-.41-.34-.75-.75-.75Zm-7.05,7.81h-4.4l.37-2.2h3.66l.37,2.2Z"/></svg>