<?xml version="1.0" encoding="UTF-8"?><svg id="Layer_1" xmlns="http://www.w3.org/2000/svg" viewBox="0 0 24 24"><defs><style>.cls-1{stroke-width:0px;}</style></defs><path class="cls-1" d="m21.25,12.7c-.41,0-.75.34-.75.75v2.88c0,.27-.22.48-.48.48H3.98c-.27,0-.48-.22-.48-.48V6.46c0-.27.22-.48.48-.48h2.26c.41,0,.75-.34.75-.75s-.34-.75-.75-.75h-2.26c-1.09,0-1.98.89-1.98,1.98v9.87c0,1.09.89,1.98,1.98,1.98h4.66l-.37,2.2h-1.21c-.41,0-.75.34-.75.75s.34.75.75.75h9.87c.41,0,.75-.34.75-.75s-.34-.75-.75-.75h-1.21l-.37-2.2h4.66c1.09,0,1.98-.89,1.98-1.98v-2.88c0-.41-.34-.75-.75-.75Zm-11.45,7.81l.37-2.2h3.66l.37,2.2h-4.4Z"/><path class="cls-1" d="m20.44,2c-2.95.11-4.43.81-5.17,1.43-.74-.62-2.21-1.32-5.13-1.43-.8-.07-1.53.52-1.59,1.27,0,.04-.01.09-.01.13v6.99c.08.78.75,1.36,1.47,1.33,3.88.14,4.55,1.34,4.55,1.34h0s0,0,0,0c.02.07.06.14.1.2,0,0,0,0,0,0,.11.16.28.28.48.32.04,0,.08.01.13.01.31,0,.6-.19.7-.5,0-.01.64-1.25,4.51-1.39.78.05,1.46-.54,1.53-1.4V3.33c-.08-.81-.81-1.42-1.56-1.33Zm-1.65,4.19c-.6.06-1.2.18-1.77.37-.29.11-.62-.03-.74-.32,0-.01,0-.02-.01-.03-.12-.29.02-.61.31-.73.01,0,.03-.01.05-.02.65-.22,1.33-.36,2.01-.43.31-.04.59.19.62.5.04.31-.19.59-.5.62l.03.04Zm-2.14,2.28c.65-.22,1.33-.36,2.01-.43.31-.03.58.2.61.51.03.3-.19.57-.48.61v.03c-.6.06-1.2.18-1.77.37-.06.01-.13.01-.19,0-.31,0-.56-.25-.56-.56,0-.24.15-.45.38-.53Zm-2.6-2.19c-.08.22-.29.37-.52.37-.07,0-.13-.01-.19-.04-.59-.2-1.2-.33-1.82-.39-.3-.03-.53-.3-.5-.61,0,0,0,0,0-.01.03-.3.29-.52.59-.5.01,0,.02,0,.03,0,.71.07,1.4.22,2.07.45.29.11.44.43.34.72Zm0,2.9c-.08.22-.29.37-.52.37-.06.01-.13.01-.19,0-.59-.2-1.19-.33-1.81-.39-.31-.04-.53-.31-.5-.62.04-.31.31-.53.62-.5.7.08,1.4.23,2.07.46.28.11.42.41.34.69Z"/></svg>