<svg viewBox="0 0 16 16" fill="none" xmlns="http://www.w3.org/2000/svg">
  <path class="sky-i-path-1" d="M 1,8 C 1,4.13401 4.13401,1 8,1 c 3.866,0 7,3.13401 7,7 0,3.866 -3.134,7 -7,7 C 4.13401,15 1,11.866 1,8 Z" fill="#242424" />
  <path class="sky-i-path-2" d="m 10.8536,6.85355 c 0.1952,-0.19526 0.1952,-0.51184 0,-0.7071 -0.1953,-0.19527 -0.5119,-0.19527 -0.7072,0 L 7.25,9.04289 5.85355,7.64645 c -0.19526,-0.19527 -0.51184,-0.19527 -0.7071,0 -0.19527,0.19526 -0.19527,0.51184 0,0.7071 l 1.75,1.75005 c 0.19526,0.1952 0.51184,0.1952 0.7071,0 z" fill="white" />
</svg>
