<svg viewBox="0 0 16 16" xmlns="http://www.w3.org/2000/svg">
<path class="sky-i-path-1" d="M8 1C11.866 1 15 4.13401 15 8C15 11.866 11.866 15 8 15C4.13401 15 1 11.866 1 8C1 4.13401 4.13401 1 8 1Z"/>
<path class="sky-i-path-2" d="M8.75 5.5C8.75 5.91421 8.41421 6.25 8 6.25C7.58579 6.25 7.25 5.91421 7.25 5.5C7.25 5.08579 7.58579 4.75 8 4.75C8.41421 4.75 8.75 5.08579 8.75 5.5Z M8 7C8.27614 7 8.5 7.22386 8.5 7.5V10.5C8.5 10.7761 8.27614 11 8 11C7.72386 11 7.5 10.7761 7.5 10.5V7.5C7.5 7.22386 7.72386 7 8 7Z"/>
</svg>
