<svg viewBox="0 0 16 16" fill="none" xmlns="http://www.w3.org/2000/svg">
<path class="sky-i-path-1" d="M8 2C11.3137 2 14 4.68629 14 8C14 11.3137 11.3137 14 8 14C4.68629 14 2 11.3137 2 8C2 4.68629 4.68629 2 8 2Z" fill="#242424"/>
<path class="sky-i-path-2" fill-rule="evenodd" clip-rule="evenodd" d="M10.8383 6.14645C11.0336 6.34171 11.0336 6.65829 10.8383 6.85355L7.59594 10.0959C7.40068 10.2912 7.0841 10.2912 6.88884 10.0959L5.14645 8.35357C4.95119 8.15831 4.95118 7.84173 5.14645 7.64646C5.34171 7.4512 5.65829 7.4512 5.85355 7.64646L7.24239 9.03528L10.1312 6.14645C10.3265 5.95118 10.6431 5.95118 10.8383 6.14645Z" fill="white"/>
</svg>
