<svg viewBox="0 0 32 32" fill="none" xmlns="http://www.w3.org/2000/svg">
<path class="sky-i-path-1" d="M30 16C30 18.5515 29.3613 20.9129 28.084 23.0839C26.8515 25.1878 25.1821 26.8553 23.0756 28.0863C20.902 29.3621 18.5378 30 15.9832 30C13.4286 30 11.0644 29.3621 8.89076 28.0863C6.78431 26.8553 5.12605 25.1878 3.91597 23.0839C2.63866 20.9129 2 18.5515 2 16C2 13.4484 2.63866 11.0871 3.91597 8.91607C5.14846 6.81216 6.81793 5.14469 8.92437 3.91367C11.098 2.6379 13.451 2 15.9832 2C18.5154 2 20.8683 2.6379 23.042 3.91367C25.1709 5.14469 26.8515 6.81216 28.084 8.91607C29.3613 11.0871 30 13.4484 30 16Z" fill="#252B33"/>
<path class="sky-i-path-2" d="M22.5876 12.1023C22.1873 11.6835 21.5184 11.664 21.0936 12.0587L13.3899 19.2173L11.2101 17.0361C10.8004 16.6262 10.1313 16.6213 9.71549 17.0252C9.29972 17.4291 9.29476 18.0888 9.70443 18.4987L12.5372 21.3333C12.9808 21.7771 13.7027 21.7903 14.1626 21.3629L22.5434 13.5753C22.9682 13.1806 22.988 12.5211 22.5876 12.1023Z" fill="white"/>
</svg>
