<svg viewBox="0 0 16 16" fill="none" xmlns="http://www.w3.org/2000/svg">
<path class="sky-i-path-1" d="M9.09575 2.64027C8.61879 1.78668 7.3906 1.78655 6.91347 2.64005L2.16073 11.1417C1.69493 11.975 2.29724 13.0017 3.25181 13.0017H12.7551C13.7095 13.0017 14.3118 11.9752 13.8463 11.142L9.09575 2.64027Z" fill="#242424"/>
<path class="sky-i-path-2" fill-rule="evenodd" clip-rule="evenodd" d="M8.00391 5.00195C8.28005 5.00195 8.50391 5.22581 8.50391 5.50195V8.00195C8.50391 8.2781 8.28005 8.50195 8.00391 8.50195C7.72776 8.50195 7.50391 8.2781 7.50391 8.00195V5.50195C7.50391 5.22581 7.72776 5.00195 8.00391 5.00195Z M8.75391 10.252C8.75391 10.6662 8.41812 11.002 8.00391 11.002C7.58969 11.002 7.25391 10.6662 7.25391 10.252C7.25391 9.83774 7.58969 9.50195 8.00391 9.50195C8.41812 9.50195 8.75391 9.83774 8.75391 10.252Z" fill="white"/>
</svg>
