<?xml version="1.0" encoding="UTF-8"?><svg id="Layer_1" xmlns="http://www.w3.org/2000/svg" viewBox="0 0 24 24"><defs><style>.cls-1{stroke-width:0px;}</style></defs><path class="cls-1" d="m19.2,12.24c.41,0,.74-.33.75-.74,0-.41-.32-.75-.73-.76-5.13-.12-7.51-2.49-7.49-7.47,0-.41-.33-.75-.75-.75h0c-.41,0-.75.33-.75.75h0c-.02,5.03-2.4,7.4-7.48,7.48-.41,0-.74.34-.74.76,0,.41.34.74.75.74,0,0,.01,0,.02,0,5.03,0,7.4,2.38,7.45,7.48,0,.41.33.73.73.74h.02c.4,0,.73-.31.75-.71.26-5.12,2.61-7.51,7.41-7.51.02,0,.04,0,.06,0Zm-8.15,3.34c-.74-1.99-2.07-3.36-4-4.13,1.83-.76,3.14-2.06,3.9-3.87.76,1.86,2.1,3.17,4.03,3.91-1.83.78-3.15,2.15-3.93,4.09Zm4.32-10.67c0-.41.34-.75.75-.75h.89v-.89c0-.41.34-.75.75-.75s.75.34.75.75v.89h.89c.41,0,.75.34.75.75s-.34.75-.75.75h-.89v.89c0,.41-.34.75-.75.75s-.75-.34-.75-.75v-.89h-.89c-.41,0-.75-.34-.75-.75Zm6.63,14.18c0,.41-.34.75-.75.75h-.89v.89c0,.41-.34.75-.75.75s-.75-.34-.75-.75v-.89h-.89c-.41,0-.75-.34-.75-.75s.34-.75.75-.75h.89v-.89c0-.41.34-.75.75-.75s.75.34.75.75v.89h.89c.41,0,.75.34.75.75Z"/></svg>