<?xml version="1.0" encoding="UTF-8"?><svg id="Layer_1" xmlns="http://www.w3.org/2000/svg" viewBox="0 0 24 24"><defs><style>.cls-1{stroke-width:0px;}</style></defs><path class="cls-1" d="m19.5,12.57c.46,0,.83-.37.83-.83s-.37-.83-.83-.83c-5.15-.12-7.5-2.5-7.5-7.5,0-.46-.37-.83-.83-.83s-.83.37-.83.83c0,5.04-2.41,7.42-7.5,7.5-.46,0-.83.37-.83.83s.37.83.83.83c5.05,0,7.42,2.38,7.5,7.5,0,.46.37.83.83.83s.83-.37.83-.83c.26-5.14,2.62-7.5,7.45-7.5h.05Z"/><path class="cls-1" d="m16.18,5.18h1.04v1.04c0,.35.28.62.62.62s.62-.28.62-.62v-1.04h1.04c.35,0,.62-.28.62-.62s-.28-.62-.62-.62h-1.04v-1.04c0-.35-.28-.62-.62-.62s-.62.28-.62.62v1.04h-1.04c-.35,0-.62.28-.62.62s.28.62.62.62Z"/><path class="cls-1" d="m21.37,18.82h-1.04v-1.04c0-.35-.28-.62-.62-.62s-.62.28-.62.62v1.04h-1.04c-.35,0-.62.28-.62.62s.28.62.62.62h1.04v1.04c0,.35.28.62.62.62s.62-.28.62-.62v-1.04h1.04c.35,0,.62-.28.62-.62s-.28-.62-.62-.62Z"/></svg>