<svg width="16" height="16" viewBox="0 0 16 16" fill="none" xmlns="http://www.w3.org/2000/svg">
<path d="M7.61972 5.62205C7.51818 5.72804 7.46113 5.87181 7.46113 6.02171V9.413C7.46113 9.56291 7.51818 9.70667 7.61972 9.81267C7.72127 9.91867 7.859 9.97822 8.00261 9.97822C8.14622 9.97822 8.28394 9.91867 8.38549 9.81267C8.48704 9.70667 8.54408 9.56291 8.54408 9.413V6.02171C8.54408 5.87181 8.48704 5.72804 8.38549 5.62205C8.28394 5.51605 8.14622 5.4565 8.00261 5.4565C7.859 5.4565 7.72127 5.51605 7.61972 5.62205Z" fill="white"/>
<path d="M7.45852 12.2785C7.61183 12.4333 7.81641 12.5204 8.02968 12.5217C8.13678 12.521 8.24266 12.4979 8.34107 12.4538C8.43947 12.4096 8.5284 12.3454 8.60261 12.2647C8.67681 12.1841 8.73478 12.0888 8.77309 11.9844C8.8114 11.88 8.82927 11.7686 8.82565 11.6569C8.81729 11.4345 8.72707 11.2239 8.57376 11.0692C8.42046 10.9144 8.21588 10.8273 8.00261 10.826C7.89551 10.8267 7.78962 10.8498 7.69122 10.894C7.59281 10.9381 7.50388 11.0024 7.42968 11.083C7.35548 11.1636 7.29751 11.2589 7.2592 11.3633C7.22089 11.4677 7.20301 11.5791 7.20663 11.6908C7.21499 11.9133 7.30522 12.1238 7.45852 12.2785Z" fill="white"/>
</svg>
