<svg width="16" height="16" viewBox="0 0 16 16" fill="none" xmlns="http://www.w3.org/2000/svg">
<path d="M14.3758 12.8439L8.96102 2.10478C8.86923 1.92237 8.73144 1.76962 8.56252 1.66303C8.3936 1.55644 8.19999 1.50006 8.0026 1.5C7.80522 1.50006 7.6116 1.55644 7.44268 1.66303C7.27377 1.76962 7.13597 1.92237 7.04419 2.10478L1.62941 12.8439C1.53925 13.0187 1.49478 13.2152 1.50049 13.4136C1.50619 13.6121 1.56186 13.8054 1.6619 13.9743C1.76057 14.137 1.89742 14.2706 2.05946 14.3626C2.22151 14.4546 2.40337 14.5019 2.58782 14.4999H13.4174C13.6038 14.4999 13.787 14.4496 13.9493 14.354C14.1117 14.2583 14.2476 14.1206 14.344 13.954C14.4404 13.7875 14.4939 13.5978 14.4995 13.4033C14.5051 13.2088 14.4625 13.0161 14.3758 12.8439Z" fill="black"/>
</svg>
