<?xml version="1.0" encoding="UTF-8"?>
<svg id="Layer_1" data-name="Layer 1" xmlns="http://www.w3.org/2000/svg" viewBox="0 0 24 24">
  <defs>
    <style>
      .cls-1 {
        stroke-width: 0px;
      }
    </style>
  </defs>
  <path class="cls-1" d="M15.21,12.47c0,1.1.89,1.98,1.98,1.98s1.98-.89,1.98-1.98-.89-1.98-1.98-1.98-1.98.89-1.98,1.98"/>
  <path class="cls-1" d="M5.02,12.47c0,1.1.89,1.98,1.98,1.98,1.1,0,1.98-.89,1.98-1.98h0c0-1.1-.89-1.98-1.98-1.98s-1.98.89-1.98,1.98"/>
  <path class="cls-1" d="M9.65,9.56c0,1.33,1.08,2.41,2.41,2.41s2.41-1.08,2.41-2.41h0c0-1.33-1.08-2.41-2.41-2.41s-2.41,1.08-2.41,2.41h0"/>
  <path class="cls-1" d="M12.1,2.15C6.58,2.15,2.1,6.63,2.1,12.15s4.48,10,10,10,10-4.48,10-10S17.62,2.15,12.1,2.15ZM16.27,15.48c.22.53.33,1.09.33,1.67,0,.23-.19.42-.42.42-.23,0-.42-.19-.42-.42,0-2.02-1.64-3.66-3.66-3.66-2.02,0-3.66,1.64-3.66,3.66,0,.23-.19.42-.42.42s-.42-.19-.42-.42h0c0-.57.11-1.14.32-1.67-1.11-.26-2.27-.05-3.22.58-2.13-4.08-.56-9.11,3.52-11.25,4.08-2.13,9.11-.56,11.25,3.52.62,1.18.94,2.48.95,3.81,0,1.35-.33,2.69-.97,3.88-.95-.62-2.1-.82-3.2-.55Z"/>
</svg>