<?xml version="1.0" encoding="UTF-8"?>
<svg id="Layer_1" data-name="Layer 1" xmlns="http://www.w3.org/2000/svg" viewBox="0 0 24 24">
  <defs>
    <style>
      .cls-1 {
        stroke-width: 0px;
      }
    </style>
  </defs>
  <path class="cls-1" d="M12,2.15C6.48,2.15,2,6.63,2,12.15s4.49,10,10,10,10-4.49,10-10S17.51,2.15,12,2.15ZM12,3.63c4.7,0,8.52,3.82,8.52,8.52,0,.93-.15,1.82-.43,2.66-.25-.19-.53-.34-.81-.46.47-.4.77-.99.77-1.65,0-1.21-.98-2.19-2.19-2.19s-2.19.98-2.19,2.19c0,.66.3,1.25.77,1.65-.25.1-.48.23-.71.39-.58-.91-1.47-1.59-2.53-1.89.3-.14.58-.33.82-.57.55-.55.86-1.28.86-2.07,0-1.61-1.31-2.92-2.92-2.92s-2.92,1.31-2.92,2.92c0,.78.3,1.51.85,2.07.25.25.54.44.85.58-1.04.31-1.91.97-2.48,1.87-.22-.16-.46-.28-.7-.38.47-.4.77-.99.77-1.65,0-1.21-.98-2.19-2.19-2.19s-2.19.98-2.19,2.19c0,.66.3,1.25.77,1.65-.29.12-.56.27-.81.46-.28-.84-.43-1.73-.43-2.66C3.48,7.45,7.3,3.63,12,3.63ZM17.86,13.4c-.39,0-.71-.32-.71-.71s.32-.71.71-.71.71.32.71.71-.32.71-.71.71ZM10.94,11.23c-.27-.27-.42-.63-.42-1.02h0c0-.79.65-1.44,1.44-1.44s1.44.65,1.44,1.44c0,.38-.15.74-.42,1.02-.27.27-.63.42-1.02.42h0c-.38,0-.75-.15-1.02-.42ZM6.14,13.4c-.39,0-.71-.32-.71-.71s.32-.71.71-.71.71.32.71.71-.32.71-.71.71ZM12,20.67c-3.22,0-6.03-1.8-7.47-4.44.78-.82,2.07-.94,2.99-.23.06.05.11.11.16.16-.06.3-.1.61-.1.93,0,.41.33.74.74.74s.74-.33.74-.74c0-1.63,1.32-2.95,2.95-2.95s2.95,1.32,2.95,2.95c0,.41.33.74.74.74s.74-.33.74-.74c0-.32-.04-.63-.1-.93.05-.05.1-.11.16-.16.91-.71,2.2-.59,2.99.23-1.45,2.64-4.25,4.44-7.47,4.44Z"/>
</svg>